<?xml version="1.0" encoding="UTF-8"?>
<svg width="124px" height="22px" viewBox="0 0 124 22" version="1.1" xmlns="http://www.w3.org/2000/svg" xmlns:xlink="http://www.w3.org/1999/xlink">
    <!-- Generator: sketchtool 58 (101010) - https://sketch.com -->
    <title>CC4267FE-BE7F-4E7B-8862-A9AB4E817F75</title>
    <desc>Created with sketchtool.</desc>
    <g id="Views" stroke="none" stroke-width="1" fill="none" fill-rule="evenodd">
        <g transform="translate(-16.000000, -16.000000)" fill="#FFFFFF" id="Logo">
            <g transform="translate(16.000000, 16.000000)">
                <path d="M5.57815233,0 C9.2580061,5.1606489 15.6556566,10.0004468 15.7201953,10.0482331 L15.7201953,10.0482331 L16.9863014,10.9998635 L15.7201953,11.9531322 C15.6556566,12.0006454 9.25198248,16.8486353 5.57815233,22 L5.57815233,22 L3.46730629,20.635769 C4.9732095,18.5266176 6.86318973,16.5034816 8.63499243,14.7962814 L8.63499243,14.7962814 L1.62494127,17.561061 L0.649115993,15.3175618 L8.51824907,12.214455 L0,12.214455 L0,9.78691027 L8.51939643,9.78691027 L0.649115993,6.68271128 L1.62494127,4.44030434 L8.63613978,7.20399171 C6.86318973,5.49788375 4.9732095,3.47474773 3.46730629,1.36423101 L3.46730629,1.36423101 Z M26.3188628,4.23076923 C30.1070657,4.23076923 33.1232877,7.25682172 33.1232877,11.0084303 C33.1232877,14.7246593 30.1070657,17.7692308 26.3188628,17.7692308 C22.5691612,17.7692308 19.5342466,14.7246593 19.5342466,11.0084303 C19.5342466,7.25682172 22.5691612,4.23076923 26.3188628,4.23076923 Z M42.9840435,4.23076923 C45.1590185,4.23076923 47.078018,5.34216656 48.2552129,7.04041631 L48.397,7.253 L48.3688591,7.27400719 C48.0357874,7.50938518 45.8389002,9.11369244 45.8389002,9.11369244 C45.2496425,8.1167093 44.1814301,7.44671011 42.9840435,7.44671011 C41.1057014,7.44671011 39.6329557,9.03657619 39.6329557,11.0084303 C39.6329557,12.9816664 41.1057014,14.5521843 42.9840435,14.5521843 C44.2003012,14.5521843 45.2496425,13.9012568 45.8564424,12.9045501 L48.3795924,14.7429019 C47.2196823,16.5619055 45.2496425,17.7692308 42.9840435,17.7692308 C39.411818,17.7692308 36.5205479,14.7235537 36.5205479,11.0084303 C36.5205479,7.25571611 39.411818,4.23076923 42.9840435,4.23076923 Z M62,4.23076923 L62,7.09971946 L58.5309244,7.09971946 L58.5309244,17.7692308 L55.2772948,17.7692308 L55.2772948,7.09971946 L51.8082192,7.09971946 L51.8082192,4.23076923 L62,4.23076923 Z M72.1817368,4.23076923 C75.9711335,4.23076923 78.9863014,7.25682172 78.9863014,11.0084303 C78.9863014,14.7246593 75.9711335,17.7692308 72.1817368,17.7692308 C68.4322373,17.7692308 65.3972603,14.7246593 65.3972603,11.0084303 C65.3972603,7.25682172 68.4322373,4.23076923 72.1817368,4.23076923 Z M88.8086378,4.23076923 C91.977563,4.23076923 93.4246575,6.49081909 93.4246575,8.75030173 C93.4246575,11.0293531 91.977563,13.2496983 88.8086378,13.2496983 L86.4980867,13.2496983 L86.4980867,17.7692308 L83.2328767,17.7692308 L83.2328767,4.23076923 L88.8086378,4.23076923 Z M101.669044,4.23076923 L101.669044,12.7265332 C101.669044,13.9295352 102.641659,14.7237908 103.615898,14.7237908 C104.590947,14.7237908 105.564104,13.9295352 105.564104,12.7265332 L105.564104,4.23076923 L108.712329,4.23076923 L108.712329,12.7265332 C108.712329,15.8103281 106.295255,17.7692308 103.615898,17.7692308 C100.937621,17.7692308 98.5205479,15.8103281 98.5205479,12.7265332 L98.5205479,4.23076923 L101.669044,4.23076923 Z M118.8138,4.23076923 C121.536656,4.23076923 123.55987,5.74379547 123.55987,8.34695243 L120.215687,8.34695243 C120.215687,7.63991532 119.793763,7.1224902 118.773053,7.1224902 C117.871407,7.1224902 117.311346,7.54317451 117.311346,8.175583 C117.311346,8.42406867 117.391685,8.90224467 118.592724,9.24719475 L120.175806,9.72675276 C123.799153,10.7980881 124,12.8105733 124,13.7484064 C124,16.6589227 121.215878,17.7692308 118.894428,17.7692308 C115.811203,17.7692308 113.808219,16.1608457 113.808219,13.6715665 L117.191126,13.6715665 C117.230718,14.3808149 117.73327,14.9549025 118.894428,14.9549025 C119.753882,14.9549025 120.595419,14.5914334 120.595419,13.7672017 C120.595419,13.5565832 120.595419,13.1162743 119.212895,12.675689 L117.592532,12.1582639 C114.509018,11.3536568 113.987392,9.47826708 113.987392,8.2712182 C113.987392,5.85767323 116.050197,4.23076923 118.8138,4.23076923 Z M26.3188628,7.44781572 C24.3472005,7.44781572 22.8001696,9.03685259 22.8001696,11.0084303 C22.8001696,12.9816664 24.3472005,14.5524607 26.3188628,14.5524607 C28.289409,14.5524607 29.8749413,12.9816664 29.8749413,11.0084303 C29.8749413,9.03685259 28.289409,7.44781572 26.3188628,7.44781572 Z M72.1817368,7.44781572 C70.210034,7.44781572 68.6640874,9.03685259 68.6640874,11.0084303 C68.6640874,12.9816664 70.210034,14.5524607 72.1817368,14.5524607 C74.1534395,14.5524607 75.7378883,12.9816664 75.7378883,11.0084303 C75.7378883,9.03685259 74.1534395,7.44781572 72.1817368,7.44781572 Z M88.651081,7.09971946 L86.4980867,7.09971946 L86.4980867,10.4207364 L88.651081,10.4207364 C89.7271546,10.4207364 90.1196348,9.55602411 90.1196348,8.75030173 C90.1196348,7.94429575 89.7271546,7.09971946 88.651081,7.09971946 Z M48.4109476,7.24540268 L48.3984636,7.25571611 L48.397,7.253 C48.4076046,7.24709075 48.4111877,7.24484333 48.4109476,7.24540268 Z" id="Octopus-logo"></path>
            </g>
        </g>
    </g>
</svg>